# xmcd
#
# Track frame offsets: 
#        150
#        14334
#        31749
#        55572
#        77853
#        92583
#        116700
#        139329
#        155574
#        177447
#        203253
#        226074
#
# Disc length: 3370 seconds
#
# Revision: 0
# Processed by: cddbd v1.5.2PL0 Copyright (c) Steve Scherf et al.
# Submitted via: ExactAudioCopyFreeDBPlugin 1.0
#
DISCID=8c0d280c
DTITLE=พงษ์สิทธิ์ คำภีร์ - The Best Of Kampee 3
DYEAR=1900
DGENRE=Thai Country
TTITLE0=เธอผู้เสียสละ
TTITLE1=ทองดีทองเค
TTITLE2=แค่นั้น
TTITLE3=แกเพื่อนฉัน
TTITLE4=พ่อเป็นกรรมกร
TTITLE5=เรียนและงาน
TTITLE6=โยโกฮาม่า
TTITLE7=เราจะกลับมา
TTITLE8=รู้อยู่
TTITLE9=ความเข้มแข็งสุดท้าย
TTITLE10=รักบอด
TTITLE11=หวัง
EXTD=
EXTT0=
EXTT1=
EXTT2=
EXTT3=
EXTT4=
EXTT5=
EXTT6=
EXTT7=
EXTT8=
EXTT9=
EXTT10=
EXTT11=
PLAYORDER=
